<?xml version="1.0" encoding="utf-8"?>
<!-- License: CC Attribution. Made by Saeedworks: https://dribbble.com/saeedworks -->
<svg width="800px" height="800px" viewBox="0 0 24 24" fill="none" xmlns="http://www.w3.org/2000/svg">
<g id="style=doutone">
<g id="message">
<path id="vector (Stroke)" fill-rule="evenodd" clip-rule="evenodd" d="M21.1278 6.18259C21.1276 6.1832 21.1275 6.1838 21.1273 6.18441L17.013 19.394C16.2487 21.839 12.8232 21.8798 12.0108 19.4468L12.01 19.4442L10.7875 15.8276C10.3768 14.5745 9.39515 13.6265 8.17816 13.2211C8.17775 13.221 8.17735 13.2208 8.17694 13.2207L4.55221 11.9997C2.12266 11.1855 2.16644 7.74515 4.58179 6.98632C4.58215 6.9862 4.58252 6.98608 4.58289 6.98597L17.8396 2.87816L17.8434 2.87697C19.8553 2.24181 21.755 4.1257 21.1278 6.18259ZM17.3938 1.44593C20.5863 0.439728 23.5345 3.43986 22.5618 6.62281L18.4449 19.8408C17.2516 23.658 11.8683 23.7517 10.5886 19.9234C10.5884 19.9229 10.5882 19.9224 10.5881 19.9219L9.36534 16.3045L9.36293 16.2972C9.10562 15.5095 8.48677 14.9047 7.70334 14.644L7.70072 14.6431L4.07556 13.422C4.07563 13.422 4.07549 13.4219 4.07556 13.422C0.276533 12.1486 0.321192 6.75095 4.13385 5.55475L17.3918 1.44656C17.3925 1.44635 17.3931 1.44614 17.3938 1.44593Z" fill="#000000"/>
<path id="vector (Stroke)_2" fill-rule="evenodd" clip-rule="evenodd" d="M6.60304 9.47172C6.47081 9.86426 6.68183 10.2897 7.07437 10.4219L10.7032 11.6443C10.9549 11.728 11.1898 11.8475 11.4011 11.997C11.5369 12.0931 11.6629 12.2017 11.7774 12.3212C12.0389 12.594 12.241 12.9246 12.3628 13.2975L12.3652 13.3048L13.5888 16.9248C13.7215 17.3172 14.1471 17.5278 14.5395 17.3952C14.9319 17.2625 15.1425 16.8369 15.0099 16.4445L13.7874 12.8279C13.5941 12.2379 13.2734 11.7142 12.8604 11.2833C12.6795 11.0945 12.4809 10.9236 12.2677 10.7727C11.9363 10.5381 11.5695 10.3518 11.1782 10.2215C11.1778 10.2213 11.1773 10.2212 11.1769 10.221L7.55322 9.00038C7.16067 8.86815 6.73527 9.07918 6.60304 9.47172Z" fill="#BFBFBF"/>
</g>
</g>
</svg>